<?xml version="1.0" encoding="utf-8"?>
<svg id="master-artboard" viewBox="0 0 724.6615600585938 1069.730224609375" version="1.1" xmlns="http://www.w3.org/2000/svg" x="0px" y="0px" style="enable-background:new 0 0 1400 980;" width="724.6615600585938px" height="1069.730224609375px"><defs><style id="ee-google-fonts">@import url(https://fonts.googleapis.com/css?family=Anton:400|Roboto+Slab:100,300,400,700);</style><path id="text-path-0" d="M 778.8464965820312 213.4612274169922 A 100 18 0 0 1 988.3533935546875 213.4612274169922 A 100 18 0 0 1 778.8464965820312 213.4612274169922 Z" style="fill: none; stroke: red; stroke-width: 2;"/><path id="text-path-1" d="M 664.5464477539062 37.96122741699219 A 100 19 0 0 1 876.5812377929688 37.96122741699219 A 100 19 0 0 1 664.5464477539062 37.96122741699219" style="fill: none; stroke: red; stroke-width: 2;"/><path id="text-path-2" d="M 765.3650512695312 211.70851135253906 A 100 17 0 0 1 991.5017700195312 211.70851135253906 A 100 17 0 0 1 765.3650512695312 211.70851135253906" style="fill: none; stroke: red; stroke-width: 2;"/><path id="path-1" d="M 765.3650512695312 211.70851135253906 A 100 17 0 0 1 991.5017700195312 211.70851135253906 A 100 17 0 0 1 765.3650512695312 211.70851135253906" style="fill: none; stroke: red; stroke-width: 2;"/></defs><rect id="ee-background" x="0" y="0" width="724.6615600585938" height="1069.730224609375" style="fill: white; fill-opacity: 1; pointer-events: none;"/>


<path style="fill: rgb(63, 61, 61); fill-opacity: 1; stroke: rgb(0, 0, 0); stroke-opacity: 1; stroke-width: 0; paint-order: fill;" transform="matrix(1, 0, 0, 1, 0, 89.73028564453125)"/><path style="fill: rgb(63, 61, 61); fill-opacity: 1; stroke: rgb(0, 0, 0); stroke-opacity: 1; stroke-width: 0; paint-order: fill;" transform="matrix(1, 0, 0, 1, 0, 89.73028564453125)"/><path style="fill: rgb(63, 61, 61); fill-opacity: 1; stroke: rgb(0, 0, 0); stroke-opacity: 1; stroke-width: 0; paint-order: fill;" transform="matrix(1, 0, 0, 1, 0, 89.73028564453125)"/><path style="fill: rgb(63, 61, 61); fill-opacity: 1; stroke: rgb(0, 0, 0); stroke-opacity: 1; stroke-width: 0; paint-order: fill;" transform="matrix(1, 0, 0, 1, 0, 89.73028564453125)"/><path style="fill: rgb(63, 61, 61); fill-opacity: 1; stroke: rgb(0, 0, 0); stroke-opacity: 1; stroke-width: 0; paint-order: fill;" transform="matrix(1, 0, 0, 1, 0, 89.73028564453125)"/><path style="fill: rgb(63, 61, 61); fill-opacity: 1; stroke: rgb(0, 0, 0); stroke-opacity: 1; stroke-width: 0; paint-order: fill;" transform="matrix(1, 0, 0, 1, 0, 89.73028564453125)"/><path d="M 725.1292114257812 261.6126403808594 L 725.1292114257812 261.6126403808594 C 725.1292114257812 261.6126403808594 710.40625 39.29716491699219 0.7635067701339722 1.0176795721054077 C 0.7635067701339722 1.0176795721054077 726.6014404296875 1.0176795721054077 728.07373046875 1.0176795721054077" style="fill: rgb(251, 255, 0); fill-opacity: 1; stroke: rgb(255, 255, 0); stroke-opacity: 1; stroke-width: 10; paint-order: stroke;"/><path d="M 725.1292114257812 261.6126403808594 L 725.1292114257812 261.6126403808594 C 725.1292114257812 261.6126403808594 710.40625 39.29716491699219 0.7635067701339722 1.0176795721054077 C 0.7635067701339722 1.0176795721054077 726.6014404296875 1.0176795721054077 728.07373046875 1.0176795721054077" style="fill: rgb(251, 255, 0); fill-opacity: 1; stroke: rgb(255, 255, 0); stroke-opacity: 1; stroke-width: 10; paint-order: stroke;" transform="matrix(-0.9929537773132324, -0.0053394753485918045, 0.0053394753485918045, -0.9929537773132324, 722.6523437499998, 1071.9252788736278)"/></svg>